<svg xmlns="http://www.w3.org/2000/svg" xmlns:xlink="http://www.w3.org/1999/xlink" xmlns:fi="http://pattern.flaticon.com/" x="0" y="0" width="700" height="350" viewBox="0 0 700 350"><rect x="0px" y="0px" width="100%" height="100%" opacity="1" fill="#ffffff"/><defs><g transform="matrix(0.13671875 0 0 0.13671875 315 315)" id="L1_296"><path d="m136 336a8.00008 8.00008 0 0 0 8-8v-88h72v-16h-72v-32a8.00008 8.00008 0 0 0 -8-8h-72v16h64v120h-48a8.00008 8.00008 0 0 0 -8 8v48a8.00008 8.00008 0 0 0 8 8h64v-16h-56v-32z"/><path d="m488 88h-192v16h80v56h-48a8.00008 8.00008 0 0 0 -8 8v64h16v-56h48a8.00008 8.00008 0 0 0 8-8v-64h32v136h16v-136h40v160h-48v16h48v32h-128a8.00008 8.00008 0 0 0 -8 8v32h16v-24h120v40h-176v-56h-16v64a8.00008 8.00008 0 0 0 8 8h184v32h-192v16h200a8.00008 8.00008 0 0 0 8-8v-328a8.00008 8.00008 0 0 0 -8-8z"/><path d="m216 88h-192a8.00008 8.00008 0 0 0 -8 8v328a8.00008 8.00008 0 0 0 8 8h200v-16h-24v-144h-16v144h-152v-168h48v40h16v-48a8.00008 8.00008 0 0 0 -8-8h-56v-80h48v-16h-48v-32h88v40a8.00008 8.00008 0 0 0 8 8h40v-16h-32v-32h72v64h16v-72a8.00008 8.00008 0 0 0 -8-8z"/><path d="m384 272a8.00008 8.00008 0 0 0 8-8v-56h-16v48h-88v16z"/><path d="m293.65674 50.34277-32-32a8.00182 8.00182 0 0 0 -11.31348 0l-32 32 11.31348 11.31446 18.34326-18.34375v52.68652h16v-52.68652l18.34326 18.34375z"/><path d="m248 456h16v40h-16z"/><path d="m248 400h16v32h-16z"/><path d="m248 344h16v32h-16z"/><path d="m248 288h16v32h-16z"/><path d="m248 232h16v32h-16z"/><path d="m248 176h16v32h-16z"/><path d="m248 120h16v32h-16z"/></g><path d="M0,0v491.608h491.608V0H0z M458.834,458.834H357.536v-34.006h67.291V66.78h-99.81v32.774h67.036v131.983  h-34.518v-97.466H134.071v223.465h114.461v-32.774h-81.687V166.845h91.377v33.767h-57.61v90.384h90.384v-32.774h-57.61v-24.837  h57.61v-66.54h33.767v157.917h-36.615v32.774h69.389v-93.225h34.518v127.742h-292.5v-57.482H66.78v90.256h257.982v34.006H32.774  V157.075H66.78v141.978h32.773V99.554h191.314V66.78H66.78v57.521H32.774V32.774h426.059V458.834z" transform="matrix(0.10170704871416092 0 0 0.10170704871416092 150 325)" id="L1_297"/><g transform="matrix(0.09765625 0 0 0.09765625 62.5 150)" id="L1_298"><path d="M366,276c11.046,0,20-8.954,20-20V146c0-11.046-8.954-20-20-20c-11.046,0-20,8.954-20,20v90H40V20C40,8.954,31.046,0,20,0    S0,8.954,0,20v472c0,11.046,8.954,20,20,20h346c11.046,0,20-8.954,20-20c0-11.046-8.954-20-20-20H40V276H366z"/><path d="M492,0H146c-11.046,0-20,8.954-20,20v126c0,11.046,8.954,20,20,20s20-8.954,20-20V40h306v306H193    c-11.046,0-20,8.954-20,20c0,11.046,8.954,20,20,20h279v106c0,11.046,8.954,20,20,20c11.046,0,20-8.954,20-20V20    C512,8.954,503.046,0,492,0z"/></g><g transform="matrix(0.09765625 0 0 0.09765625 237.5 150)" id="L1_299"><path d="M264.533,273.067c-4.71,0-8.533,3.823-8.533,8.533V384c0,4.71,3.823,8.533,8.533,8.533h85.333     c4.71,0,8.533-3.823,8.533-8.533s-3.823-8.533-8.533-8.533h-76.8V281.6C273.067,276.89,269.244,273.067,264.533,273.067z"/><path d="M170.667,332.8V230.4c0-4.71-3.823-8.533-8.533-8.533h-102.4c-4.71,0-8.533,3.823-8.533,8.533s3.823,8.533,8.533,8.533     H153.6v85.333h-42.667h-51.2c-4.71,0-8.533,3.823-8.533,8.533v102.4c0,4.71,3.823,8.533,8.533,8.533s8.533-3.823,8.533-8.533     v-93.867H102.4v153.6H34.133c-9.412,0-17.067-7.654-17.067-17.067V290.133h93.867c4.71,0,8.533-3.823,8.533-8.533     s-3.823-8.533-8.533-8.533H17.067v-85.333h93.867c4.71,0,8.533-3.823,8.533-8.533s-3.823-8.533-8.533-8.533H68.267v-59.733     c0-4.71-3.823-8.533-8.533-8.533s-8.533,3.823-8.533,8.533v59.733H17.067V34.133c0-9.412,7.654-17.067,17.067-17.067H51.2v42.667     c0,4.71,3.823,8.533,8.533,8.533H102.4V128c0,4.71,3.823,8.533,8.533,8.533s8.533-3.823,8.533-8.533V59.733     c0-4.71-3.823-8.533-8.533-8.533H68.267V17.067H307.2v153.6H170.667v-102.4H256v51.2h-34.133v-8.533     c0-4.71-3.823-8.533-8.533-8.533c-4.71,0-8.533,3.823-8.533,8.533V128c0,4.71,3.823,8.533,8.533,8.533h51.2     c4.71,0,8.533-3.823,8.533-8.533V59.733c0-4.71-3.823-8.533-8.533-8.533h-102.4c-4.71,0-8.533,3.823-8.533,8.533V179.2     c0,4.71,3.823,8.533,8.533,8.533h238.933c4.71,0,8.533-3.823,8.533-8.533s-3.823-8.533-8.533-8.533h-76.8V8.533     c0-4.71-3.823-8.533-8.533-8.533h-281.6C15.309,0,0,15.309,0,34.133v443.733C0,496.691,15.309,512,34.133,512h76.8     c4.71,0,8.533-3.823,8.533-8.533V341.333h42.667C166.844,341.333,170.667,337.51,170.667,332.8z"/><path d="M366.933,136.533c4.71,0,8.533-3.823,8.533-8.533V59.733c0-4.71-3.823-8.533-8.533-8.533s-8.533,3.823-8.533,8.533V128     C358.4,132.71,362.223,136.533,366.933,136.533z"/><path d="M452.267,341.333c4.71,0,8.533-3.823,8.533-8.533V230.4c0-4.71-3.823-8.533-8.533-8.533H264.533     c-4.71,0-8.533,3.823-8.533,8.533s3.823,8.533,8.533,8.533h179.2V332.8C443.733,337.51,447.556,341.333,452.267,341.333z"/><path d="M221.867,230.4c0-4.71-3.823-8.533-8.533-8.533c-4.71,0-8.533,3.823-8.533,8.533v102.4c0,4.71,3.823,8.533,8.533,8.533     c4.71,0,8.533-3.823,8.533-8.533V230.4z"/><path d="M477.867,0H366.933c-4.71,0-8.533,3.823-8.533,8.533s3.823,8.533,8.533,8.533h110.933     c9.412,0,17.067,7.654,17.067,17.067v85.333h-68.267v-51.2h25.6c4.71,0,8.533-3.823,8.533-8.533s-3.823-8.533-8.533-8.533     h-34.133c-4.71,0-8.533,3.823-8.533,8.533V128c0,4.71,3.823,8.533,8.533,8.533h25.6V179.2c0,4.71,3.823,8.533,8.533,8.533     c4.71,0,8.533-3.823,8.533-8.533v-42.667h34.133v238.933h-42.667c-4.71,0-8.533,3.823-8.533,8.533s3.823,8.533,8.533,8.533     h42.667v34.133H409.6V281.6c0-4.71-3.823-8.533-8.533-8.533h-85.333c-4.71,0-8.533,3.823-8.533,8.533v51.2     c0,4.71,3.823,8.533,8.533,8.533h34.133c4.71,0,8.533-3.823,8.533-8.533c0-4.71-3.823-8.533-8.533-8.533h-25.6v-34.133h68.267     V435.2c0,4.71,3.823,8.533,8.533,8.533h93.867v34.133c0,9.412-7.654,17.067-17.067,17.067h-307.2v-51.2h179.2     c4.71,0,8.533-3.823,8.533-8.533s-3.823-8.533-8.533-8.533H162.133c-4.71,0-8.533,3.823-8.533,8.533v68.267     c0,4.71,3.823,8.533,8.533,8.533h315.733C496.691,512,512,496.691,512,477.867V34.133C512,15.309,496.691,0,477.867,0z"/><path d="M213.333,375.467h-51.2c-4.71,0-8.533,3.823-8.533,8.533s3.823,8.533,8.533,8.533h51.2c4.71,0,8.533-3.823,8.533-8.533     S218.044,375.467,213.333,375.467z"/></g></defs><g fi:class="KUsePattern"><pattern id="pattern_L1_296" width="350" height="350" patternUnits="userSpaceOnUse"><use xlink:href="#L1_296" x="-350" y="-350"/><use xlink:href="#L1_296" x="0" y="-350"/><use xlink:href="#L1_296" x="350" y="-350"/><use xlink:href="#L1_296" x="-350" y="0"/><use xlink:href="#L1_296" x="0" y="0"/><use xlink:href="#L1_296" x="350" y="0"/><use xlink:href="#L1_296" x="-350" y="350"/><use xlink:href="#L1_296" x="0" y="350"/><use xlink:href="#L1_296" x="350" y="350"/></pattern><rect x="0" y="0" width="100%" height="100%" fill="url(#pattern_L1_296)"/></g><g fi:class="KUsePattern"><pattern id="pattern_L1_297" width="350" height="350" patternUnits="userSpaceOnUse"><use xlink:href="#L1_297" x="-350" y="-350"/><use xlink:href="#L1_297" x="0" y="-350"/><use xlink:href="#L1_297" x="350" y="-350"/><use xlink:href="#L1_297" x="-350" y="0"/><use xlink:href="#L1_297" x="0" y="0"/><use xlink:href="#L1_297" x="350" y="0"/><use xlink:href="#L1_297" x="-350" y="350"/><use xlink:href="#L1_297" x="0" y="350"/><use xlink:href="#L1_297" x="350" y="350"/></pattern><rect x="0" y="0" width="100%" height="100%" fill="url(#pattern_L1_297)"/></g><g fi:class="KUsePattern"><pattern id="pattern_L1_298" width="350" height="350" patternUnits="userSpaceOnUse"><use xlink:href="#L1_298" x="-350" y="-350"/><use xlink:href="#L1_298" x="0" y="-350"/><use xlink:href="#L1_298" x="350" y="-350"/><use xlink:href="#L1_298" x="-350" y="0"/><use xlink:href="#L1_298" x="0" y="0"/><use xlink:href="#L1_298" x="350" y="0"/><use xlink:href="#L1_298" x="-350" y="350"/><use xlink:href="#L1_298" x="0" y="350"/><use xlink:href="#L1_298" x="350" y="350"/></pattern><rect x="0" y="0" width="100%" height="100%" fill="url(#pattern_L1_298)"/></g><g fi:class="KUsePattern"><pattern id="pattern_L1_299" width="350" height="350" patternUnits="userSpaceOnUse"><use xlink:href="#L1_299" x="-350" y="-350"/><use xlink:href="#L1_299" x="0" y="-350"/><use xlink:href="#L1_299" x="350" y="-350"/><use xlink:href="#L1_299" x="-350" y="0"/><use xlink:href="#L1_299" x="0" y="0"/><use xlink:href="#L1_299" x="350" y="0"/><use xlink:href="#L1_299" x="-350" y="350"/><use xlink:href="#L1_299" x="0" y="350"/><use xlink:href="#L1_299" x="350" y="350"/></pattern><rect x="0" y="0" width="100%" height="100%" fill="url(#pattern_L1_299)"/></g></svg>